<svg enable-background="new -252 343.9 106.1 106.1" height="106.1" viewBox="-252 343.9 106.1 106.1" width="106.1" xmlns="http://www.w3.org/2000/svg"><path d="m-145.9 373.3c0-1.1 0-2.1 0-3.2-.1-2.3-.2-4.7-.6-7s-1.1-4.5-2.2-6.6-2.4-4-4.1-5.6c-1.7-1.7-3.6-3-5.6-4.1-2.1-1.1-4.3-1.8-6.6-2.2s-4.6-.6-7-.6c-1.1 0-2.1 0-3.2 0-1.3 0-2.5 0-3.8 0h-28.1-11.6c-1.3 0-2.5 0-3.8 0-1.1 0-2.1 0-3.2 0-.6 0-1.2 0-1.7.1-1.7.1-3.5.2-5.2.5s-3.4.8-5 1.4c-.5.2-1.1.5-1.6.7-1.6.8-3 1.8-4.4 2.9-.4.4-.9.8-1.3 1.2-1.7 1.7-3 3.6-4.1 5.6-1.1 2.1-1.8 4.3-2.2 6.6s-.5 4.6-.6 7v3.2 3.8 17.3 22.4 3.8 3.2c.1 2.3.2 4.7.6 7s1.1 4.5 2.2 6.6 2.4 4 4.1 5.6c1.7 1.7 3.6 3 5.6 4.1 2.1 1.1 4.3 1.8 6.6 2.2s4.6.6 7 .6h3.2 3.8 39.7 3.8 3.2c2.3-.1 4.7-.2 7-.6s4.5-1.1 6.6-2.2 4-2.4 5.6-4.1c1.7-1.7 3-3.6 4.1-5.6 1.1-2.1 1.8-4.3 2.2-6.6s.6-4.6.6-7c0-1.1 0-2.1 0-3.2 0-1.3 0-2.5 0-3.8v-39.7c-0-1.2-0-2.4-0-3.7z" fill="#f05138"/><path d="m-168 409.4c.1-.4.2-.8.3-1.2 4.4-17.5-6.3-38.3-24.5-49.2 8 10.8 11.5 23.9 8.4 35.3-.3 1-.6 2-1 3-.4-.3-.9-.6-1.6-.9 0 0-18.1-11.2-37.7-30.9-.5-.5 10.5 15.7 22.9 28.8-5.9-3.3-22.2-15.2-32.6-24.6 1.3 2.1 2.8 4.2 4.4 6.1 8.6 11 19.9 24.5 33.4 34.9-9.5 5.8-22.9 6.3-36.2 0-3.3-1.5-6.4-3.4-9.3-5.5 5.6 9 14.3 16.8 24.9 21.4 12.6 5.4 25.2 5.1 34.5.1s.1 0 .1-.1c.4-.2.8-.5 1.2-.7 4.5-2.3 13.3-4.6 18.1 4.6 1.4 2.1 3.9-9.9-5.3-21.1z" fill="#fff"/></svg>